<?xml version="1.0" ?><!DOCTYPE svg  PUBLIC '-//W3C//DTD SVG 1.1//EN'  'http://www.w3.org/Graphics/SVG/1.1/DTD/svg11.dtd'><svg height="8.4666mm" style="shape-rendering:geometricPrecision; text-rendering:geometricPrecision; image-rendering:optimizeQuality; fill-rule:evenodd; clip-rule:evenodd" version="1.1" viewBox="0 0 846.66 846.66" width="8.4666mm" xml:space="preserve" xmlns="http://www.w3.org/2000/svg" xmlns:xlink="http://www.w3.org/1999/xlink"><defs><style type="text/css">
   <![CDATA[
    .fil0 {fill:black;fill-rule:nonzero}
   ]]>
  </style></defs><g id="Layer_x0020_1"><path class="fil0" d="M587.84 762c120.29,-91.34 196.5,-228.85 210.16,-379.28 -129.37,-74.06 -289.94,-74.66 -420.33,-0.01 13.7,150.91 90.36,288.33 210.17,379.29zm-503.95 -138.93c-26.85,0 -26.85,-40.82 0,-40.82l165.53 0c26.85,0 26.85,40.82 0,40.82l-165.53 0zm0 -59.71c-26.85,0 -26.85,-40.82 0,-40.82l230.7 0c26.84,0 26.84,40.82 0,40.82l-230.7 0zm4.33 -168.05c-13.4,-23.15 21.84,-43.56 35.24,-20.41l37.85 65.55 103.2 -178.74c13.29,-23.14 48.53,-2.89 35.23,20.25l-120.21 208.22c-7.09,14.34 -27.64,15.35 -35.86,1.16l-55.45 -96.03zm553.21 -157.48l-136.14 0c-26.85,0 -26.85,-40.82 0,-40.82l136.14 0 0 -64.59c0,-28.94 -23.75,-52.7 -52.69,-52.7l-52.62 0 -84.39 146.18c-3.22,7.04 -10.32,11.93 -18.57,11.93l-385.36 0 0 382.83c0,28.93 23.76,52.69 52.7,52.69l344.27 0c-63.65,-87.86 -101.42,-191.95 -108.74,-300.32 -0.55,-8.16 3.79,-15.52 10.51,-19.21 88.34,-53.84 192.27,-76.61 294.89,-64.66l0 -51.33zm-74 144.22c-45.2,2.49 -89.44,13.26 -130.72,31.85 16.27,97.06 61.99,187.05 130.72,257.44l0 -289.29zm20.41 -41.38c11.27,0 20.41,9.14 20.41,20.41l-0.05 357.07c0.01,17.02 -20.18,26.84 -33.52,15.54 -98.41,-83.27 -162.6,-199.89 -180.34,-327.57 -1.85,-8.86 2.4,-18.21 10.88,-22.43 56.63,-28.25 119.33,-43.02 182.62,-43.02zm-110.6 373.5l-376.74 0c-51.48,0 -93.52,-42.04 -93.52,-93.51l0 -488.24c0,-51.48 42.04,-93.52 93.52,-93.52l488.24 0c51.47,0 93.51,42.04 93.51,93.52l0 163.34c51.38,10.69 101.38,30.2 147.67,58.53 6.69,4.09 10.19,11.42 9.71,18.74 -11.6,172.11 -99.73,330.39 -239.91,430.91 -7.45,5.33 -17.27,4.94 -24.21,-0.32 -36.42,-26.17 -69.32,-56.24 -98.27,-89.45zm-378.26 -553.35c-26.85,0 -26.85,-40.82 0,-40.82l19.38 0c26.85,0 26.85,40.82 0,40.82l-19.38 0zm83.64 0c-26.85,0 -26.85,-40.82 0,-40.82l19.38 0c26.85,0 26.85,40.82 0,40.82l-19.38 0zm83.64 0c-26.85,0 -26.85,-40.82 0,-40.82l19.38 0c26.85,0 26.85,40.82 0,40.82l-19.38 0zm222.93 -81.1l-388.69 0c-28.94,0 -52.7,23.76 -52.7,52.7l0 64.59 373.68 0 67.71 -117.29z"/></g></svg>