<?xml version="1.0" ?><svg id="Layer_1" style="enable-background:new 0 0 256 256;" version="1.1" viewBox="0 0 256 256" xml:space="preserve" xmlns="http://www.w3.org/2000/svg" xmlns:xlink="http://www.w3.org/1999/xlink"><g><path d="M250.1,100.4c-0.4-0.7-38.1-70.3-117.1-70.2V15.8c0-2.7-2.2-4.9-4.9-4.9c-2.7,0-4.9,2.2-4.9,4.9v14.3   C44.1,30,6.3,99.6,5.9,100.4c-0.9,1.6-0.7,3.6,0.3,5.1c1,1.5,2.9,2.3,4.7,2.1c0.3,0,26.2-2.8,57.1,16.8c1.3,0.8,2.9,1,4.3,0.5   c0.2-0.1,21.3-7.5,50.7-8.5v101.5c0,7.3,2.8,14.1,8,19.3c5.1,5.1,12,8,19.3,8c15,0,27.3-12.2,27.3-27.3c0-2.7-2.2-4.9-4.9-4.9   c-2.7,0-4.9,2.2-4.9,4.9c0,9.6-7.8,17.4-17.4,17.4c-4.7,0-9-1.8-12.3-5.1c-3.3-3.3-5.1-7.6-5.1-12.3V116.4   c29.4,1,50.5,8.4,50.7,8.5c0.5,0.2,1.1,0.3,1.7,0.3c0.9,0,1.9-0.3,2.7-0.8c30.8-19.6,56.8-16.8,57.1-16.8c1.8,0.3,3.6-0.6,4.7-2.1   C250.8,104,250.9,102,250.1,100.4z M184.7,114.8c-6.9-2.2-28.5-8.2-56.8-8.4c-28.1,0.2-49.7,6.2-56.6,8.4   c-21.8-13.3-41-16.5-52-17.1c12.1-17.5,47.7-60,108.5-57.5c0,0,0.1,0,0.1,0c0,0,0,0,0,0s0,0,0,0c0,0,0.1,0,0.1,0   c60.8-2.4,96.4,40,108.5,57.5C225.7,98.2,206.4,101.5,184.7,114.8z"/><path d="M203.8,171.3c-8.1-2.8-12-4.7-12.6-9.2c-0.4-3.3,2.2-6.9,5.7-7.9c4.2-1.3,10.1-0.7,15.6,1.5c2.5,1,5.4-0.2,6.4-2.8   c1-2.5-0.2-5.4-2.8-6.4c-3-1.2-6.1-2-9.2-2.4v-4.3c0-2.7-2.2-4.9-4.9-4.9c-2.7,0-4.9,2.2-4.9,4.9v4.3c-1,0.2-2,0.4-2.9,0.7   c-8.2,2.4-13.8,10.7-12.7,18.7c1.5,11,11.3,14.5,19.2,17.2c4.1,1.4,7.9,2.8,10,4.8c1.8,1.6,2.7,3.8,2.7,5.9c0,2.2-1,4.2-2.8,5.8   c-2.1,1.9-5,3-8.7,3.2c-3,0.1-6.6-0.2-10.8-1c-1-0.2-2.1-0.4-3.1-0.7c-2.6-0.8-5.4,0.7-6.2,3.3c-0.8,2.6,0.7,5.4,3.3,6.2   c1.3,0.4,2.7,0.7,4.1,0.9c2.9,0.5,5.5,0.9,7.9,1v4c0,2.7,2.2,4.9,4.9,4.9c2.7,0,4.9-2.2,4.9-4.9v-4.6c4-0.9,7.4-2.6,10.2-5.1   c3.9-3.5,6-8.1,6.1-13.1c0.1-5-2-9.7-5.8-13.2C213.8,174.8,208.7,173,203.8,171.3z"/><path d="M55.4,171.3c-8.1-2.8-12-4.7-12.6-9.2c-0.4-3.3,2.2-6.9,5.7-7.9c4.2-1.3,10.1-0.7,15.6,1.5c2.5,1,5.4-0.2,6.4-2.8   c1-2.5-0.2-5.4-2.8-6.4c-3-1.2-6.1-2-9.2-2.4v-4.3c0-2.7-2.2-4.9-4.9-4.9s-4.9,2.2-4.9,4.9v4.3c-1,0.2-2,0.4-2.9,0.7   c-8.2,2.4-13.8,10.7-12.7,18.7c1.5,11,11.3,14.5,19.2,17.2c4.1,1.4,7.9,2.8,10,4.8c1.8,1.6,2.7,3.8,2.7,5.9c0,2.2-1,4.2-2.8,5.8   c-2.1,1.9-5,3-8.7,3.2c-3,0.1-6.6-0.2-10.8-1c-1-0.2-2.1-0.4-3.1-0.7c-2.6-0.8-5.4,0.7-6.2,3.3c-0.8,2.6,0.7,5.4,3.3,6.2   c1.3,0.4,2.7,0.7,4.1,0.9c2.9,0.5,5.5,0.9,7.9,1v4c0,2.7,2.2,4.9,4.9,4.9s4.9-2.2,4.9-4.9v-4.6c4-0.9,7.4-2.6,10.2-5.1   c3.9-3.5,6-8.1,6.1-13.1c0.1-5-2-9.7-5.8-13.2C65.4,174.8,60.3,173,55.4,171.3z"/></g></svg>