<?xml version="1.0" ?><svg height="24" id="svg8" version="1.1" viewBox="0 0 24 24" width="24" xmlns="http://www.w3.org/2000/svg" xmlns:cc="http://creativecommons.org/ns#" xmlns:dc="http://purl.org/dc/elements/1.1/" xmlns:rdf="http://www.w3.org/1999/02/22-rdf-syntax-ns#" xmlns:svg="http://www.w3.org/2000/svg"><defs id="defs2"><rect height="7.0346723" id="rect2504" width="7.9207187" x="-1.1008456" y="289.81766"/></defs><g id="g2051" style="display:inline;stroke-width:0.255706;stroke-miterlimit:4;stroke-dasharray:none" transform="matrix(3.9108241,0,0,3.9106726,-0.41906059,-1137.2716)"><path d="m 0.48062428,294.10527 v 0.12686 2.26943 H 1.7716125 v -0.32014 l 0.00549,0.002 c 0.3374462,0.11222 0.8200366,0.21199 1.2969813,0.38256 l 0.035459,0.012 0.034959,-0.008 c 0.1498881,-0.0349 0.5537498,-0.15944 1.0352879,-0.31414 0.4815379,-0.1547 1.0308718,-0.33746 1.4393146,-0.47846 0.1954608,-0.0677 0.3005724,-0.28632 0.2287321,-0.48046 -0.075487,-0.19862 -0.2944482,-0.28798 -0.4809368,-0.23074 -0.1553163,0.0476 -0.8842722,0.27278 -1.362904,0.41404 0.00451,-0.13652 0.040403,-0.28415 -0.070418,-0.37108 l -0.00599,-0.006 -0.00749,-0.003 C 3.382115,294.77918 3.3365267,294.73758 2.5801633,294.33555 l -0.035459,-0.0175 -0.038954,0.004 c -0.2601007,0.0279 -0.7020004,0.10105 -0.7341402,0.10638 v -0.32314 z m 0.25570058,0.25571 H 1.5174101 v 1.88487 H 0.73632486 Z m 1.75794144,0.22075 c 0.6908808,0.36798 0.7702277,0.42414 1.2809999,0.72868 0.082839,0.065 0.1049052,0.14486 0.054936,0.21675 -0.02683,0.0386 -0.054925,0.0539 -0.09389,0.0604 -0.038964,0.007 -0.092768,-0.002 -0.1543191,-0.029 -0.2300226,-0.10632 -0.3551697,-0.17411 -0.6092867,-0.31665 l -0.1113694,-0.0624 -0.1248539,0.22275 0.1113696,0.0624 c 0.2557558,0.14345 0.3908386,0.21825 0.6287639,0.32813 h 0.00199 c 0.097205,0.0433 0.1997855,0.064 0.3006479,0.0469 0.041861,-0.007 0.069202,-0.0497 0.1073743,-0.0704 l 0.004,0.0115 0.1228562,-0.035 c 0.4792553,-0.14035 1.2680038,-0.38451 1.427828,-0.43351 v -0.002 c 0.060408,-0.0185 0.1420184,0.012 0.1663053,0.0759 0.022607,0.0641 -0.00687,0.12614 -0.072415,0.14883 -0.4056758,0.14005 -0.9539196,0.3223 -1.433821,0.47647 -0.4678699,0.1503 -0.8637873,0.27019 -0.9883428,0.30065 -0.4799981,-0.16669 -0.9569965,-0.27179 -1.2555298,-0.37108 l -0.085899,-0.0275 v -1.22661 l 0.021474,-0.003 c 0,0 0.4413428,-0.0714 0.701179,-0.10189 z" id="rect1945" style="color:#000000;font-style:normal;font-variant:normal;font-weight:normal;font-stretch:normal;font-size:medium;line-height:normal;font-family:sans-serif;font-variant-ligatures:normal;font-variant-position:normal;font-variant-caps:normal;font-variant-numeric:normal;font-variant-alternates:normal;font-variant-east-asian:normal;font-feature-settings:normal;font-variation-settings:normal;text-indent:0;text-align:start;text-decoration:none;text-decoration-line:none;text-decoration-style:solid;text-decoration-color:#000000;letter-spacing:normal;word-spacing:normal;text-transform:none;writing-mode:lr-tb;direction:ltr;text-orientation:mixed;dominant-baseline:auto;baseline-shift:baseline;text-anchor:start;white-space:normal;shape-padding:0;shape-margin:0;inline-size:0;clip-rule:nonzero;display:inline;overflow:visible;visibility:visible;isolation:auto;mix-blend-mode:normal;color-interpolation:sRGB;color-interpolation-filters:linearRGB;solid-color:#000000;solid-opacity:1;vector-effect:none;fill:#000000;fill-opacity:1;fill-rule:nonzero;stroke:none;stroke-width:0.255706;stroke-linecap:square;stroke-linejoin:miter;stroke-miterlimit:4;stroke-dasharray:none;stroke-dashoffset:0;stroke-opacity:1;paint-order:fill markers stroke;color-rendering:auto;image-rendering:auto;shape-rendering:auto;text-rendering:auto;enable-background:accumulate;stop-color:#000000"/><path d="m 4.2341022,291.18359 c -0.8727768,0 -1.5839843,0.71121 -1.5839843,1.58399 0,0.87278 0.7112075,1.58203 1.5839843,1.58203 0.8727769,0 1.5820313,-0.70925 1.5820313,-1.58203 0,-0.87278 -0.7092544,-1.58399 -1.5820313,-1.58399 z m 0,0.25586 c 0.7345823,0 1.3261719,0.59354 1.3261719,1.32813 0,0.73459 -0.5915896,1.32617 -1.3261719,1.32617 -0.7345822,0 -1.3281249,-0.59158 -1.328125,-1.32617 0,-0.73459 0.5935428,-1.32813 1.328125,-1.32813 z" id="circle2013" style="color:#000000;font-style:normal;font-variant:normal;font-weight:normal;font-stretch:normal;font-size:medium;line-height:normal;font-family:sans-serif;font-variant-ligatures:normal;font-variant-position:normal;font-variant-caps:normal;font-variant-numeric:normal;font-variant-alternates:normal;font-variant-east-asian:normal;font-feature-settings:normal;font-variation-settings:normal;text-indent:0;text-align:start;text-decoration:none;text-decoration-line:none;text-decoration-style:solid;text-decoration-color:#000000;letter-spacing:normal;word-spacing:normal;text-transform:none;writing-mode:lr-tb;direction:ltr;text-orientation:mixed;dominant-baseline:auto;baseline-shift:baseline;text-anchor:start;white-space:normal;shape-padding:0;shape-margin:0;inline-size:0;clip-rule:nonzero;display:inline;overflow:visible;visibility:visible;isolation:auto;mix-blend-mode:normal;color-interpolation:sRGB;color-interpolation-filters:linearRGB;solid-color:#000000;solid-opacity:1;vector-effect:none;fill:#000000;fill-opacity:1;fill-rule:nonzero;stroke:none;stroke-width:0.255706;stroke-linecap:butt;stroke-linejoin:miter;stroke-miterlimit:4;stroke-dasharray:none;stroke-dashoffset:0;stroke-opacity:1;paint-order:fill markers stroke;color-rendering:auto;image-rendering:auto;shape-rendering:auto;text-rendering:auto;enable-background:accumulate;stop-color:#000000"/><path d="m 4.1043819,291.91226 v 0.12936 0.0924 H 3.7562896 v 0.76064 h 0.6981822 v 0.24922 H 3.8851386 3.7562896 v 0.25571 h 0.128849 0.2192433 v 0.0919 0.12885 h 0.2557006 v -0.12885 -0.0919 h 0.3500899 v -0.76064 H 4.0119902 v -0.24922 h 0.5693331 0.1288491 v -0.25571 H 4.5813233 4.3600825 v -0.0924 -0.12936 z" id="path2015" style="color:#000000;font-style:normal;font-variant:normal;font-weight:normal;font-stretch:normal;font-size:medium;line-height:normal;font-family:sans-serif;font-variant-ligatures:normal;font-variant-position:normal;font-variant-caps:normal;font-variant-numeric:normal;font-variant-alternates:normal;font-variant-east-asian:normal;font-feature-settings:normal;font-variation-settings:normal;text-indent:0;text-align:start;text-decoration:none;text-decoration-line:none;text-decoration-style:solid;text-decoration-color:#000000;letter-spacing:normal;word-spacing:normal;text-transform:none;writing-mode:lr-tb;direction:ltr;text-orientation:mixed;dominant-baseline:auto;baseline-shift:baseline;text-anchor:start;white-space:normal;shape-padding:0;shape-margin:0;inline-size:0;clip-rule:nonzero;display:inline;overflow:visible;visibility:visible;isolation:auto;mix-blend-mode:normal;color-interpolation:sRGB;color-interpolation-filters:linearRGB;solid-color:#000000;solid-opacity:1;vector-effect:none;fill:#000000;fill-opacity:1;fill-rule:nonzero;stroke:none;stroke-width:0.255706;stroke-linecap:square;stroke-linejoin:miter;stroke-miterlimit:4;stroke-dasharray:none;stroke-dashoffset:0;stroke-opacity:1;color-rendering:auto;image-rendering:auto;shape-rendering:auto;text-rendering:auto;enable-background:accumulate;stop-color:#000000"/></g></svg>